PathFileType	4	(X/Y/Z)	D:\TRACE\v60_Jaco2_6-2-23\BothDRS_Motion3_8-platform.trc
DataRate	CameraRate	NumFrames	NumMarkers	Units	OrigDataRate	OrigDataStartFrame	OrigNumFrames
100.00	100.00	      43	5	mm	100.00	3501	      7000
Frame#	Time	Left_Front			Right_Front			Left_Aft			Right_Aft			Post			
		X1	Y1	Z1	X2	Y2	Z2	X3	Y3	Z3	X4	Y4	Z4	X5	Y5	Z5	

3501	35.000	-747.57825	-3.25037	-653.56500	822.81171	-4.48837	-630.66718	-678.55194	20.34499	482.96622	735.22748	18.69125	585.73767	47.39183	1287.90857	-991.11389	
3502	35.010	-747.53143	-3.22695	-653.55115	822.77527	-4.45225	-630.64319	-678.47644	20.16806	483.11615	734.91608	18.38582	585.87872	47.34157	1288.02820	-991.01099	
3503	35.020	-747.46851	-3.12094	-653.45416	822.69629	-4.40723	-630.55865	-678.46063	20.03036	483.11963	735.70721	19.04854	585.85449	47.41306	1288.16797	-990.92175	
3504	35.030	-747.56110	-2.96898	-653.31580	822.79315	-4.25027	-630.50208	-678.38153	19.93003	483.15024	735.67273	18.89243	585.92700	47.40360	1288.41455	-990.97601	
3505	35.040	-747.58185	-2.78059	-653.16852	822.77887	-4.08648	-630.44250	-678.37061	19.89738	483.13971	735.71552	18.77525	585.91644	47.42147	1288.82654	-991.09485	
3506	35.050	-747.54675	-2.69312	-653.15387	822.71460	-3.86347	-630.44312	-678.33813	19.84909	483.14529	735.75751	18.67189	585.91003	47.49253	1289.27295	-991.24390	
3507	35.060	-747.71222	-2.43444	-653.07684	822.62915	-3.68743	-630.41669	-678.39886	19.73615	483.16382	735.75427	18.56537	585.94073	47.52366	1289.46228	-991.21729	
3508	35.070	-747.80078	-2.58790	-653.17047	822.80597	-3.61167	-630.67828	-678.46680	19.53669	483.25092	735.78485	18.39701	585.99207	47.47025	1289.71252	-990.99628	
3509	35.080	-747.96967	-2.16061	-652.84961	822.72107	-3.14279	-630.30756	-678.49835	19.35226	483.29681	735.81335	18.15591	586.00757	47.49144	1289.96521	-990.67889	
3510	35.090	-748.01819	-1.89160	-652.62579	822.81299	-2.75392	-630.21381	-678.48694	19.15757	483.43259	735.79218	17.91229	586.07062	47.54277	1290.36951	-990.15033	
3511	35.100	-747.85333	-1.61041	-652.84814	822.63574	-2.51626	-630.19293	-678.47650	18.99727	483.49539	735.69537	17.74415	586.14783	47.56396	1290.94250	-989.64911	
3512	35.110	-747.85858	-1.05018	-652.81348	822.73987	-2.34269	-630.19519	-678.38452	18.81091	483.60306	736.16675	17.99512	586.27039	47.34929	1291.43140	-988.96185	
3513	35.120	-747.88287	-0.81719	-652.73059	822.62323	-2.02840	-630.16504	-678.58936	18.56556	483.54276	735.85443	17.39008	586.39471	47.38869	1291.89758	-987.82111	
3514	35.130	-747.80157	-0.29160	-652.54407	822.63281	-1.75025	-630.06934	-678.56323	18.29485	483.51651	736.02557	17.15377	586.52545	47.33976	1292.06409	-986.59070	
3515	35.140	-747.88525	0.02327	-652.41138	822.68048	-1.38140	-629.96069	-678.67200	18.09352	483.56638	735.87683	16.81268	586.71271	47.32638	1292.58923	-985.61188	
3516	35.150	-748.19855	0.40778	-652.08765	822.77496	-1.12818	-630.24518	-678.69781	17.86249	483.67191	735.77106	16.59712	586.83710	47.43468	1293.23291	-984.34753	
3517	35.160	-748.27759	0.70630	-652.30798	822.46490	-0.67800	-629.73730	-678.70587	17.63396	483.71475	735.46307	16.09402	586.59277	47.22194	1293.83923	-983.15613	
3518	35.170	-748.48663	1.04168	-652.28790	822.28821	-0.36673	-629.73285	-678.88635	17.37658	483.87643	735.42853	16.00307	586.84045	46.99744	1294.60693	-982.19788	
3519	35.180	-748.63892	1.30470	-652.31512	822.25055	-0.04426	-629.61847	-679.03296	17.03771	483.95361	735.27277	15.66922	586.81775	46.75842	1294.92212	-981.45581	
3520	35.190	-748.74670	1.83898	-652.39099	822.07843	0.55136	-629.52368	-679.19135	16.78172	484.02417	735.06311	15.24168	587.01093	46.69224	1295.43982	-980.43231	
3521	35.200	-748.56128	2.40278	-652.19202	822.00250	1.15604	-629.41919	-679.30768	16.61722	484.08640	735.02472	14.88167	587.02136	46.74561	1296.42371	-979.44977	
3522	35.210	-748.59717	2.73594	-652.09100	821.99573	1.51257	-629.34778	-679.39124	16.33502	484.29962	734.94031	14.42592	587.25745	46.43808	1296.86646	-978.79669	
3523	35.220	-748.61957	3.06383	-652.01404	821.99274	1.78242	-629.30908	-679.44653	15.97593	484.42957	734.89990	14.14121	587.37256	46.33060	1297.59802	-978.16968	
3524	35.230	-748.74445	3.56274	-652.17975	821.77960	2.00245	-629.18494	-679.65033	15.52993	484.43713	734.83789	13.85123	587.43567	46.22720	1298.28308	-977.46899	
3525	35.240	-749.02106	4.23432	-652.26581	821.55249	2.49432	-629.17218	-679.84198	15.20621	484.58401	734.72827	13.50549	587.47382	46.28589	1298.89099	-976.58643	
3526	35.250	-749.18933	4.69956	-652.02216	821.39526	3.10290	-628.95007	-680.01447	14.86443	485.00610	734.45941	13.10242	587.60437	46.14828	1299.35120	-975.77325	
3527	35.260	-749.21570	5.03101	-651.73578	821.66254	3.33255	-629.21631	-679.98462	14.63362	484.92883	734.90808	12.87955	587.80365	45.88956	1300.18250	-974.98077	
3528	35.270	-749.26660	5.34257	-651.86877	821.21686	3.96709	-628.77100	-680.10339	14.46051	484.90878	734.28961	12.38170	587.87384	45.69098	1301.10339	-974.14038	
3529	35.280	-749.42639	5.84100	-651.90704	820.93591	4.44561	-628.72546	-680.41821	14.31847	484.93024	734.31897	11.80951	588.14825	45.58828	1301.91101	-973.16571	
3530	35.290	-749.70917	6.58333	-651.45300	820.90466	5.16164	-628.47180	-680.64117	13.75213	485.15253	734.08246	11.39003	588.25513	45.74095	1302.53735	-971.92932	
3531	35.300	-749.96765	7.16789	-651.20349	820.80743	5.65103	-628.48645	-680.72363	13.44357	485.34525	733.87396	10.95689	588.22955	45.24682	1303.49890	-970.79352	
3532	35.310	-750.06488	7.87347	-650.80859	820.59442	6.22052	-628.38147	-680.73468	13.26323	485.35526	733.41937	10.33467	587.69464	45.02183	1304.46729	-969.26178	
3533	35.320	-750.20355	8.57092	-650.68530	820.57874	7.03642	-628.04675	-680.66107	12.24220	485.78122	733.35474	9.97646	588.46729	44.96427	1305.29443	-967.65057	
3534	35.330	-750.58765	9.36111	-651.02008	820.23804	7.51330	-628.06116	-681.08429	11.83135	485.80463	733.19293	9.32502	588.68756	44.40767	1306.32373	-966.27356	
3535	35.340	-750.49390	9.71204	-650.59076	820.28326	7.76014	-628.31787	-681.34515	11.48813	485.95651	733.16052	8.95963	588.91119	44.52111	1307.03479	-964.32642	
3536	35.350	-750.65509	10.14307	-650.14246	819.70807	8.59348	-627.79926	-681.51660	11.20734	486.10272	733.05414	8.63410	589.05994	44.01152	1307.84363	-962.65460	
3537	35.360	-750.75610	10.68046	-649.89880	819.56165	9.19556	-627.66583	-681.73969	10.72583	486.24283	732.67957	8.12043	589.15149	44.33100	1308.85730	-960.94775	
3538	35.370	-750.99304	11.02493	-649.79767	819.42480	9.85665	-627.49139	-681.87372	10.19829	486.45660	732.29266	7.43719	589.13910	43.95705	1309.83472	-959.56757	
3539	35.380	-751.40198	11.86627	-649.88318	819.38959	10.29953	-627.81268	-682.07758	9.87797	486.61426	732.05304	6.99400	589.33643	43.79317	1310.67859	-958.20477	
3540	35.390	-751.66583	12.58386	-650.14233	818.92029	11.01995	-627.24640	-682.46069	9.67316	486.85730	731.93390	6.67027	589.52515	43.35683	1311.54370	-956.80286	
3541	35.400	-751.83984	13.25433	-649.96625	818.54999	11.60002	-627.06213	-682.43652	9.12893	487.19681	731.63538	6.01583	589.70068	43.09866	1312.31812	-955.67273	
3542	35.410	-752.27313	14.12174	-649.67053	818.27325	12.14836	-626.79077	-683.01410	8.98993	486.75772	731.56555	5.65926	589.85370	42.35230	1313.11157	-954.56842	
3543	35.420	-752.90472	14.64559	-649.14093	817.91473	12.71307	-626.71448	-683.33826	8.43138	486.95547	731.06616	4.97401	589.97119	42.28582	1314.10535	-953.44379	
